<svg xmlns="http://www.w3.org/2000/svg" width="80" height="80" viewBox="0 0 80 80"><defs><style>.a{fill:#f2f4f5;}.b{fill:#e3e5e5;}.c{fill:#cdcfd0;}.d,.j,.k,.l{fill:#b4b6b8;}.e{fill:#464a4c;}.f{fill:#7a7e7f;}.g{fill:#979697;}.h,.i{fill:none;stroke-linecap:round;stroke-linejoin:round;}.h{stroke:#f1f1f2;stroke-width:2px;}.i{stroke:#b4b6b8;}.j{font-size:14px;}.j,.k,.l{font-family:Nunito-ExtraBold, Nunito;font-weight:800;}.k{font-size:10px;}.l{font-size:9px;}</style></defs><g transform="translate(-114.83 -59.67)"><path class="a" d="M194.83,99.667a40,40,0,1,1-40-40A39.876,39.876,0,0,1,194.83,99.667Z" transform="translate(0)"/><path class="b" d="M277.586,164.04a40.416,40.416,0,0,1-.907,7.014c-.171.773-.357,1.535-.576,2.286a43.548,43.548,0,0,1-10.453,13.612q-.944.827-1.936,1.589a42.371,42.371,0,0,1-23.151,8.846c-.971.07-1.952.1-2.944.1q-1.008,0-2-.049a42.339,42.339,0,0,1-24.074-8.884q-1.008-.77-1.957-1.6A43.76,43.76,0,0,1,199.2,173.491c-.107-.367-.208-.746-.3-1.119a40.5,40.5,0,0,1-1.216-8.263,19.528,19.528,0,0,1,6.933-1.34,11.99,11.99,0,0,1,4.976.956,9.23,9.23,0,0,1,1.989,1.2c4.389,3.383,5.173,9.6,11.946,9.6,9.317,0,9.093-11.759,22.314-11.759s8.49,11.759,15.8,11.759a6.342,6.342,0,0,0,2.08-.346,7.729,7.729,0,0,0,1.936-.989C269.005,170.908,271.731,166.277,277.586,164.04Z" transform="translate(-82.756 -63.1)"/><path class="c" d="M277.686,177.594c-.171.773-.357,1.535-.576,2.286a40.512,40.512,0,0,1-12.38,19.622,39.538,39.538,0,0,1-52.13,0,40.53,40.53,0,0,1-12.337-19.47c-.107-.367-.208-.746-.3-1.119A18.94,18.94,0,0,1,207.975,177a11.1,11.1,0,0,1,4.626.892c5.835,2.6,5.814,10.051,12.961,10.051,8.66,0,8.452-10.943,20.747-10.943s7.9,10.943,14.693,10.943a6.434,6.434,0,0,0,3.73-1.243C268.184,184.349,270.924,179.313,277.686,177.594Z" transform="translate(-83.788 -69.639)"/><path class="d" d="M189.4,139.5v30.911a40.026,40.026,0,0,1-38.071-.631V139.5Z" transform="translate(-16.116 -35.248)"/><path class="e" d="M136.17,151.83v17.011a39.957,39.957,0,0,0,54.819,1.268V151.83Z" transform="translate(-9.422 -40.692)"/><path class="f" d="M144.637,139.5l-8.47,6.888h8.47Z" transform="translate(-9.421 -35.248)"/><path class="f" d="M219.5,139.5l8.282,6.888H219.5Z" transform="translate(-46.216 -35.248)"/><circle class="g" cx="1.449" cy="1.449" r="1.449" transform="translate(149.433 112.484)"/><circle class="g" cx="1.449" cy="1.449" r="1.449" transform="translate(157.33 112.484)"/><path class="h" d="M179.3,151.273s-1.123-7.033,4.02-7.033,3.877,7.033,3.877,7.033" transform="translate(-28.421 -37.341)"/><rect class="d" width="1.675" height="1.675" transform="translate(138.362 98.946) rotate(45)"/><rect class="d" width="1.675" height="1.675" transform="translate(169.208 97.762) rotate(45)"/><line class="i" x2="3.304" transform="translate(139.547 90.095)"/><line class="i" x2="3.304" transform="translate(167.843 87.79)"/><line class="i" y2="3.304" transform="translate(141.199 88.442)"/><line class="i" y2="3.304" transform="translate(169.495 86.138)"/><g transform="translate(-1 -1.99)"><text class="j" transform="translate(146.83 85.66)"><tspan x="0" y="0">Z</tspan></text><text class="k" transform="translate(156.83 93.66)"><tspan x="0" y="0">Z</tspan></text><text class="l" transform="translate(150.83 101.66)"><tspan x="0" y="0">Z</tspan></text></g></g></svg>